<?xml version="1.0" encoding="UTF-8"?>
<svg version="1.1" xmlns="http://www.w3.org/2000/svg" width="800" height="450">
<path d="M0 0 C264 0 528 0 800 0 C800 148.5 800 297 800 450 C536 450 272 450 0 450 C0 301.5 0 153 0 0 Z " fill="#FEFEFE" transform="translate(0,0)"/>
<path d="M0 0 C7.26 0 14.52 0 22 0 C22.00410889 2.33030273 22.00821777 4.66060547 22.01245117 7.06152344 C22.0297257 14.80093059 22.07435513 22.54001112 22.13209057 30.27921677 C22.16623586 34.96697003 22.19145103 39.6544017 22.19555664 44.34228516 C22.1998665 48.87487182 22.22854954 53.40673456 22.27343178 57.93909454 C22.28632152 59.65960711 22.29074503 61.38020669 22.28615379 63.10076141 C22.10488219 79.00372857 22.10488219 79.00372857 29.54850769 92.57513428 C35.20692642 96.56768851 41.07742451 96.24782216 47.6875 96.3125 C48.65623047 96.34150391 49.62496094 96.37050781 50.62304688 96.40039062 C58.25834079 96.46750274 63.75978945 95.06967315 69.375 89.75 C72.84015842 83.88588575 73.29851573 77.52193892 73.31884766 70.83984375 C73.32889328 70.06814346 73.3389389 69.29644318 73.34928894 68.50135803 C73.37989335 65.98007881 73.39709202 63.45890461 73.4140625 60.9375 C73.43279251 59.17772533 73.45236726 57.41795946 73.4727478 55.65820312 C73.52388152 51.04861667 73.56360716 46.43900117 73.60089111 41.82928467 C73.64104893 37.11658654 73.69208732 32.40400732 73.7421875 27.69140625 C73.83872449 18.46101309 73.92219297 9.23057006 74 0 C81.59 0 89.18 0 97 0 C97.04537126 9.83230106 97.08198503 19.66453141 97.10362434 29.49691391 C97.11401552 34.06357495 97.12808842 38.63016001 97.15087891 43.19677734 C97.17277504 47.61234524 97.18460362 52.02784052 97.18975449 56.44345856 C97.19342038 58.1193684 97.20057799 59.79527474 97.21146011 61.47115326 C97.3162213 78.28940454 96.36345814 93.33606156 84.75 106.5625 C73.8487726 116.22495156 62.25216719 118.65860348 47.9375 118.4375 C46.64005859 118.44458984 45.34261719 118.45167969 44.00585938 118.45898438 C31.41663107 118.37603457 20.95912644 115.79225233 11.21484375 107.4765625 C2.59435121 98.43717135 -0.34731604 84.66955614 -0.22705078 72.54272461 C-0.22734283 71.75137115 -0.22763489 70.9600177 -0.22793579 70.14468384 C-0.22655733 67.56378697 -0.21106717 64.98318934 -0.1953125 62.40234375 C-0.19157708 60.59916847 -0.18873261 58.79599115 -0.18673706 56.99281311 C-0.17914227 52.27298263 -0.15952995 47.55327746 -0.1373291 42.83349609 C-0.11678067 38.00685317 -0.10771619 33.18018978 -0.09765625 28.35351562 C-0.07627972 18.90228016 -0.04113194 9.45117016 0 0 Z " fill="#2B292C" transform="translate(393,169)"/>
<path d="M0 0 C5.89077746 4.66105287 9.57702302 10.49980525 11.3203125 17.8359375 C11.73528247 23.34863969 11.67019517 28.84224785 11.61328125 34.3671875 C11.60767812 35.97000733 11.60341141 37.57283235 11.60041809 39.17565918 C11.58902565 43.37115954 11.55960755 47.56634273 11.52630615 51.76171875 C11.49548371 56.0520397 11.48188687 60.34241247 11.46679688 64.6328125 C11.43473168 73.03401513 11.38201039 81.43490018 11.3203125 89.8359375 C4.0603125 89.8359375 -3.1996875 89.8359375 -10.6796875 89.8359375 C-10.69427002 87.86278564 -10.70885254 85.88963379 -10.72387695 83.85668945 C-10.77556451 77.33063795 -10.84086022 70.80483307 -10.91540241 64.2790041 C-10.96009205 60.32314918 -10.99935107 56.36739692 -11.02612305 52.41137695 C-11.05217039 48.59214992 -11.09258235 44.7733182 -11.14287376 40.95433617 C-11.15953292 39.49878044 -11.17105315 38.04315634 -11.17730141 36.58751869 C-11.18695335 34.54531232 -11.21502273 32.50411503 -11.24731445 30.4621582 C-11.26396904 28.72008842 -11.26396904 28.72008842 -11.28096008 26.94282532 C-11.72510958 23.48200822 -12.59452611 21.61058887 -14.6796875 18.8359375 C-20.87890696 14.92773393 -27.53422153 15.08630156 -34.6796875 15.8359375 C-39.12268066 16.89880871 -43.38800462 18.27816922 -47.6796875 19.8359375 C-48.6696875 20.1659375 -49.6596875 20.4959375 -50.6796875 20.8359375 C-50.6796875 43.6059375 -50.6796875 66.3759375 -50.6796875 89.8359375 C-57.9396875 89.8359375 -65.1996875 89.8359375 -72.6796875 89.8359375 C-72.6796875 59.1459375 -72.6796875 28.4559375 -72.6796875 -3.1640625 C-66.4096875 -3.1640625 -60.1396875 -3.1640625 -53.6796875 -3.1640625 C-53.0196875 -0.1940625 -52.3596875 2.7759375 -51.6796875 5.8359375 C-51.11121094 5.43761719 -50.54273438 5.03929687 -49.95703125 4.62890625 C-35.91356851 -5.00692545 -15.44997134 -9.37562364 0 0 Z " fill="#2D2B2E" transform="translate(581.6796875,196.1640625)"/>
<path d="M0 0 C3.72145804 1.32000435 6.03850305 3.83375314 8.75 6.625 C9.54921875 7.44226563 10.3484375 8.25953125 11.171875 9.1015625 C11.77515625 9.72804687 12.3784375 10.35453125 13 11 C11.4608199 14.66752005 9.24514548 16.98580573 6.4296875 19.765625 C5.08583984 21.09980469 5.08583984 21.09980469 3.71484375 22.4609375 C2.77769531 23.38132813 1.84054688 24.30171875 0.875 25.25 C-0.07988637 26.19484856 -1.03431859 27.14015633 -1.98828125 28.0859375 C-4.32109087 30.39518338 -6.65844086 32.69963203 -9 35 C-7.3255737 39.36769886 -4.06484147 42.20122277 -0.80615234 45.42089844 C-0.1718782 46.05546463 0.46239594 46.69003082 1.1158905 47.34382629 C3.21057478 49.43711882 5.31225102 51.5232408 7.4140625 53.609375 C8.8689557 55.06053753 10.32340756 56.51214267 11.7774353 57.96417236 C15.60350926 61.78261418 19.43555162 65.59501149 23.26885986 69.40618896 C27.18025204 73.29711379 31.08598085 77.19371428 34.9921875 81.08984375 C42.65592027 88.73213399 50.32596905 96.36805174 58 104 C60.95265112 102.67005617 63.02350216 101.22220684 65.29980469 98.92724609 C65.92014587 98.30675385 66.54048706 97.6862616 67.17962646 97.04696655 C67.83706848 96.37920197 68.4945105 95.71143738 69.171875 95.0234375 C69.8542926 94.33819 70.53671021 93.6529425 71.23980713 92.94692993 C73.41461598 90.76094155 75.58236072 88.56809571 77.75 86.375 C79.2247999 84.89016745 80.70005506 83.40578694 82.17578125 81.921875 C85.78915448 78.2864709 89.39620853 74.64490176 93 71 C96.85027991 72.78200687 99.2799142 75.07675405 102.25 78.125 C103.14203125 79.03507812 104.0340625 79.94515625 104.953125 80.8828125 C105.96632812 81.93082031 105.96632812 81.93082031 107 83 C102.80342481 87.99768117 98.44167569 92.73034838 93.84375 97.359375 C93.17839233 98.03043274 92.51303467 98.70149048 91.82751465 99.3928833 C90.43050628 100.79927279 89.03208958 102.20426464 87.63232422 103.60791016 C85.49892934 105.75107556 83.37644108 107.90467933 81.25390625 110.05859375 C79.88868082 111.43034466 78.52281707 112.80146066 77.15625 114.171875 C76.52795288 114.81251892 75.89965576 115.45316284 75.25231934 116.11322021 C70.42764245 120.91379798 65.79702938 124.38156609 58.75 124.6875 C51.62173155 124.4377224 47.92528262 120.8177437 43 116 C42.4652002 115.48050781 41.93040039 114.96101563 41.37939453 114.42578125 C38.02347487 111.15468887 34.72148025 107.83508216 31.44873047 104.48095703 C29.31744324 102.30225997 27.15853155 100.15166817 25 98 C-3.96875 69.03125 -3.96875 69.03125 -6.08569336 66.91210938 C-7.23455171 65.7645697 -8.38567101 64.6192774 -9.54125977 63.47851562 C-11.8042346 61.24218393 -13.92971527 58.96753834 -15.9375 56.5 C-17.85757393 54.20973187 -19.75409131 52.3155069 -22.125 50.5 C-26.2906888 46.87766191 -28.60781217 43.74931674 -29.3828125 38.31640625 C-29.69336221 30.68723492 -27.66269085 26.91797871 -22.46630859 21.22338867 C-21.0714624 19.83470581 -21.0714624 19.83470581 -19.6484375 18.41796875 C-19.1483316 17.91832108 -18.64822571 17.4186734 -18.13296509 16.90388489 C-17.08483128 15.85874984 -16.0342907 14.81602332 -14.98144531 13.77563477 C-13.36718445 12.17977353 -11.7612125 10.57591028 -10.15625 8.97070312 C-2.29562163 1.14781082 -2.29562163 1.14781082 0 0 Z " fill="#D74446" transform="translate(117,189)"/>
<path d="M0 0 C6.27 0 12.54 0 19 0 C19 7.26 19 14.52 19 22 C28.57 22 38.14 22 48 22 C48 27.94 48 33.88 48 40 C38.43 40 28.86 40 19 40 C19.09690625 46.76303612 19.19962076 53.52545526 19.31738281 60.28808594 C19.35567417 62.5888122 19.39052674 64.88959835 19.421875 67.19042969 C19.4675217 70.49696262 19.52551747 73.80308312 19.5859375 77.109375 C19.59748871 78.13867126 19.60903992 79.16796753 19.62094116 80.22845459 C19.64081085 81.18914856 19.66068054 82.14984253 19.68115234 83.13964844 C19.69447601 83.98348083 19.70779968 84.82731323 19.7215271 85.69671631 C20.02648478 88.21905887 20.67373446 89.84365438 22 92 C25.14801271 94.19840557 27.86920613 94.23543398 31.640625 94.1953125 C33.24550781 94.18564453 33.24550781 94.18564453 34.8828125 94.17578125 C35.99398437 94.15902344 37.10515625 94.14226562 38.25 94.125 C39.37664063 94.11597656 40.50328125 94.10695313 41.6640625 94.09765625 C44.44279922 94.07410763 47.22142659 94.03823725 50 94 C50 99.94 50 105.88 50 112 C43.17808255 114.62971665 37.41497933 115.51644372 30.125 115.4375 C29.15699463 115.43065186 28.18898926 115.42380371 27.19165039 115.41674805 C18.68155264 115.22537299 11.92710326 114.00799399 5.0625 108.75 C-2.15323467 99.12902044 -3.31384494 89.17643113 -3.1953125 77.40234375 C-3.1924826 76.32747208 -3.18965271 75.2526004 -3.18673706 74.14515686 C-3.17562274 70.74248698 -3.15053447 67.34008911 -3.125 63.9375 C-3.11495889 61.61784237 -3.10583503 59.29818057 -3.09765625 56.97851562 C-3.07571208 51.31890705 -3.04124306 45.6594995 -3 40 C-6.96 40 -10.92 40 -15 40 C-15 34.06 -15 28.12 -15 22 C-10.71 22 -6.42 22 -2 22 C-1.93941406 20.91460937 -1.87882813 19.82921875 -1.81640625 18.7109375 C-1.73193936 17.26561514 -1.64729449 15.82030318 -1.5625 14.375 C-1.52318359 13.66214844 -1.48386719 12.94929687 -1.44335938 12.21484375 C-1.40146484 11.51230469 -1.35957031 10.80976563 -1.31640625 10.0859375 C-1.26141968 9.1276001 -1.26141968 9.1276001 -1.20532227 8.14990234 C-0.94424127 5.41615765 -0.45146977 2.70881863 0 0 Z " fill="#2B292C" transform="translate(663,172)"/>
<path d="M0 0 C7.26 0 14.52 0 22 0 C22.06805375 10.7277132 22.12297554 21.45528062 22.15543652 32.18316174 C22.17102417 37.1657285 22.19213486 42.1481386 22.22631836 47.13061523 C22.25915984 51.94819469 22.27690476 56.76562442 22.28463173 61.58330727 C22.29013109 63.41191269 22.30086863 65.24051089 22.31719017 67.06905174 C22.44057108 81.47820199 22.38011592 96.59107521 12.25 107.96484375 C2.7147315 117.05795262 -8.20058016 118.18678974 -20.78955078 118.18530273 C-22.86121279 118.18748547 -24.93233858 118.2056516 -27.00390625 118.22460938 C-28.32003906 118.22654297 -29.63617188 118.22847656 -30.9921875 118.23046875 C-32.19214355 118.23457764 -33.39209961 118.23868652 -34.62841797 118.24291992 C-38 118 -38 118 -44 116 C-44 109.4 -44 102.8 -44 96 C-40.89078125 96.06960938 -40.89078125 96.06960938 -37.71875 96.140625 C-35.68654306 96.16846345 -33.65433117 96.19615045 -31.62207031 96.21972656 C-30.22155527 96.2397063 -28.82112218 96.2669002 -27.42089844 96.30175781 C-16.09703431 96.61371728 -16.09703431 96.61371728 -6 92 C-4.31480819 90.15296905 -4.31480819 90.15296905 -3.5625 88.0625 C-3.27503906 87.41410156 -2.98757813 86.76570313 -2.69140625 86.09765625 C-1.061968 81.15410632 -0.83595695 76.34963958 -0.79467773 71.18041992 C-0.78477814 70.40915771 -0.77487854 69.63789551 -0.76467896 68.84326172 C-0.73320802 66.3056948 -0.70836378 63.76810918 -0.68359375 61.23046875 C-0.66301177 59.46641059 -0.64201497 57.70235722 -0.62062073 55.93830872 C-0.56552855 51.30400484 -0.51606277 46.66965741 -0.46777344 42.03527832 C-0.41746436 37.3027765 -0.36182747 32.57033763 -0.30664062 27.83789062 C-0.19921632 18.55864562 -0.09822924 9.2793469 0 0 Z " fill="#29282A" transform="translate(350,169)"/>
<path d="M0 0 C1.1254425 0.96149153 2.25043835 1.92350588 3.37524414 2.88574219 C4.00177383 3.42140808 4.62830353 3.95707397 5.27381897 4.50897217 C8.01975637 6.88083759 10.52569996 9.34465361 13 12 C13 14 13 14 10.8125 16.375 C8 19 8 19 5.5625 20.875 C2.84133864 23.13157284 0.73131032 25.56217204 -1.52734375 28.265625 C-4.24116272 31.46174071 -7.11476735 34.31905181 -10.4375 36.875 C-13.15866136 39.13157284 -15.26868968 41.56217204 -17.52734375 44.265625 C-20.24116272 47.46174071 -23.11476735 50.31905181 -26.4375 52.875 C-29.15866136 55.13157284 -31.26868968 57.56217204 -33.52734375 60.265625 C-36.24116272 63.46174071 -39.11476735 66.31905181 -42.4375 68.875 C-44.57313245 70.64601227 -46.12575479 72.25920208 -47.875 74.375 C-56.23993113 84.25500794 -56.23993113 84.25500794 -61.9375 84.8125 C-67.88364855 84.34003471 -71.71165135 79.65167978 -75.40234375 75.375 C-75.80582031 74.88 -76.20929688 74.385 -76.625 73.875 C-79.16258308 70.80318891 -81.91279878 68.50835099 -85 66 C-86.68615782 64.35305515 -88.35570171 62.68873879 -90 61 C-90.598125 60.443125 -91.19625 59.88625 -91.8125 59.3125 C-93 58 -93 58 -93 56 C-91.390625 54.4140625 -91.390625 54.4140625 -89.25 52.625 C-86.3756268 50.18382134 -83.61456008 47.72350008 -81 45 C-77.95667235 46.3584202 -75.87690849 47.88463024 -73.546875 50.2578125 C-72.928125 50.88300781 -72.309375 51.50820312 -71.671875 52.15234375 C-70.72054687 53.12880859 -70.72054687 53.12880859 -69.75 54.125 C-69.1003125 54.78371094 -68.450625 55.44242188 -67.78125 56.12109375 C-66.18288273 57.74296643 -64.58938103 59.3693281 -63 61 C-58.90379366 59.37641304 -56.16552101 56.43319604 -53.12988281 53.35693359 C-52.55383804 52.78118088 -51.97779327 52.20542816 -51.3842926 51.61222839 C-49.48578963 49.71233463 -47.59446478 47.80546009 -45.703125 45.8984375 C-44.38648418 44.57806566 -43.06940043 43.25813536 -41.75189209 41.93862915 C-38.28854963 38.46765724 -34.83125582 34.9907207 -31.37518311 31.51251221 C-27.8462002 27.96305615 -24.3115358 24.41926799 -20.77734375 20.875 C-13.84598692 13.92220537 -6.92100623 6.96309691 0 0 Z " fill="#2B292C" transform="translate(238,162)"/>
<path d="M0 0 C6.93 0 13.86 0 21 0 C21 30.36 21 60.72 21 92 C14.07 92 7.14 92 0 92 C0 61.64 0 31.28 0 0 Z " fill="#29272A" transform="translate(613,194)"/>
<path d="M0 0 C0.98484375 -0.0515625 1.9696875 -0.103125 2.984375 -0.15625 C12.67800299 1.7917518 20.04882252 12.06824511 26.75 18.875 C27.86932104 20.00437288 28.98910921 21.13328299 30.109375 22.26171875 C32.82833025 25.00250825 35.54089201 27.74947808 38.25 30.5 C36.57867581 34.04023647 34.61660667 36.49347254 31.875 39.3125 C30.71871094 40.52873047 30.71871094 40.52873047 29.5390625 41.76953125 C27.25 43.5 27.25 43.5 25.43212891 43.41503906 C22.28160619 42.09392034 20.43599551 40.02063497 18.046875 37.58984375 C17.5642218 37.10294571 17.0815686 36.61604767 16.58428955 36.11439514 C15.0489915 34.5623455 13.52447075 33.00017864 12 31.4375 C10.9590278 30.38147643 9.9173686 29.32612962 8.875 28.27148438 C6.32532367 25.68878585 3.78520804 23.09691118 1.25 20.5 C-1.70265112 21.82994383 -3.77350216 23.27779316 -6.04980469 25.57275391 C-6.67014587 26.19324615 -7.29048706 26.8137384 -7.92962646 27.45303345 C-8.91578949 28.45468033 -8.91578949 28.45468033 -9.921875 29.4765625 C-10.6042926 30.16181 -11.28671021 30.8470575 -11.98980713 31.55307007 C-14.16461598 33.73905845 -16.33236072 35.93190429 -18.5 38.125 C-19.9747999 39.60983255 -21.45005506 41.09421306 -22.92578125 42.578125 C-26.53915448 46.2135291 -30.14620853 49.85509824 -33.75 53.5 C-34.87565907 52.5402279 -36.00060358 51.5796177 -37.12524414 50.61865234 C-37.75177383 50.08380219 -38.37830353 49.54895203 -39.02381897 48.99789429 C-41.74873286 46.63334916 -44.23104048 44.08039756 -46.75 41.5 C-45.36728136 38.39306818 -43.76977034 36.26728076 -41.37353516 33.86474609 C-40.68587067 33.17077728 -39.99820618 32.47680847 -39.28970337 31.7618103 C-38.54699188 31.02314728 -37.8042804 30.28448425 -37.0390625 29.5234375 C-36.27451752 28.75697906 -35.50997253 27.99052063 -34.72225952 27.20083618 C-33.10571049 25.58292716 -31.48663702 23.96753709 -29.86523438 22.35449219 C-27.38439802 19.88435747 -24.9143958 17.40375148 -22.4453125 14.921875 C-20.8730367 13.35092083 -19.3001406 11.78058719 -17.7265625 10.2109375 C-16.98789948 9.46822601 -16.24923645 8.72551453 -15.4881897 7.96029663 C-14.79422089 7.27263214 -14.10025208 6.58496765 -13.38525391 5.87646484 C-12.77839752 5.27119965 -12.17154114 4.66593445 -11.54629517 4.04232788 C-7.89104546 0.90387177 -4.77390741 0.14841163 0 0 Z " fill="#299D5C" transform="translate(175.75,136.5)"/>
<path d="M0 0 C5.64250917 0.21495273 8.49731903 3.94028338 12.1875 7.75 C12.81591797 8.37132812 13.44433594 8.99265625 14.09179688 9.6328125 C18.73932449 14.34495814 21.26637789 18.07525561 21.375 24.875 C21.40335937 25.67679688 21.43171875 26.47859375 21.4609375 27.3046875 C20.34817825 33.81150005 15.9340044 38.4994151 11.359375 42.93359375 C10.83232971 43.4563942 10.30528442 43.97919464 9.76226807 44.51783752 C8.09849846 46.16498672 6.42454791 47.80131709 4.75 49.4375 C3.61128536 50.56114628 2.47325776 51.68548927 1.3359375 52.81054688 C-1.43483877 55.54847511 -4.21478901 58.27676027 -7 61 C-10.78596297 59.25139846 -13.11591357 57.02829075 -16 54 C-16.78375 53.319375 -17.5675 52.63875 -18.375 51.9375 C-20 50 -20 50 -19.88110352 48.17675781 C-18.66730552 45.17808146 -16.83318196 43.49670683 -14.52734375 41.234375 C-13.62822266 40.34492188 -12.72910156 39.45546875 -11.80273438 38.5390625 C-10.85720703 37.61867187 -9.91167969 36.69828125 -8.9375 35.75 C-7.97783027 34.80538327 -7.01883771 33.86007805 -6.06054688 32.9140625 C-3.71361172 30.60250828 -1.35996609 28.2982366 1 26 C-1.14900881 21.37981308 -4.40836067 18.57546076 -8.1015625 15.12109375 C-10 13 -10 13 -10 10 C-8.55644851 8.75329644 -7.1058151 7.51259044 -5.6015625 6.33984375 C-3.3863909 4.4866636 -1.71622815 2.31030713 0 0 Z " fill="#2A9D5C" transform="translate(243,200)"/>
<path d="M0 0 C7.59 0 15.18 0 23 0 C23 6.27 23 12.54 23 19 C15.41 19 7.82 19 0 19 C0 12.73 0 6.46 0 0 Z " fill="#2D2C2E" transform="translate(612,162)"/>
<path d="M0 0 C4.91935902 4.11619836 9.52647956 8.40410362 14 13 C12.46751951 16.58402695 10.3325399 19.02850134 7.625 21.8125 C6.85414063 22.62332031 6.08328125 23.43414062 5.2890625 24.26953125 C3 26 3 26 0.8515625 25.921875 C-1.87907829 24.56231545 -3.24698846 22.44169464 -5 20 C-3.02 20.33 -1.04 20.66 1 21 C1.82638376 18.10765685 2 16.11257569 2 13 C2.33 12.34 2.66 11.68 3 11 C4.32 11.33 5.64 11.66 7 12 C7 11.34 7 10.68 7 10 C6.01 10 5.02 10 4 10 C4 8.35 4 6.7 4 5 C2.68 5.33 1.36 5.66 0 6 C-1.125 2.25 -1.125 2.25 0 0 Z M4 13 C5 15 5 15 5 15 Z " fill="#2B9C5C" transform="translate(200,154)"/>
<path d="M0 0 C0 1.65 0 3.3 0 5 C-0.66 5 -1.32 5 -2 5 C-2.2475 5.639375 -2.495 6.27875 -2.75 6.9375 C-4 9 -4 9 -6.125 9.75 C-7.053125 9.87375 -7.053125 9.87375 -8 10 C-8 12.31 -8 14.62 -8 17 C-7.34 17.33 -6.68 17.66 -6 18 C-6.13019531 18.66386719 -6.26039062 19.32773438 -6.39453125 20.01171875 C-6.82049557 22.73868662 -7.10568303 25.2395593 -7 28 C-4.59392901 31.20809465 -2.31670929 32.78886048 1 35 C1 35.66 1 36.32 1 37 C1.99 37.33 2.98 37.66 4 38 C4 38.66 4 39.32 4 40 C4.66 40.66 5.32 41.32 6 42 C5.01 42 4.02 42 3 42 C1.76951109 40.56997235 0.54692655 39.1312788 -0.609375 37.640625 C-2.14134773 35.7255852 -2.14134773 35.7255852 -5.0625 33.5625 C-9.24970123 29.9098351 -11.60227098 26.78816161 -12.3828125 21.31640625 C-12.62668467 15.32528003 -12.09729554 11.62258984 -8 7 C-1.45714286 0 -1.45714286 0 0 0 Z " fill="#CE4C4B" transform="translate(100,206)"/>
<path d="M0 0 C3.74020498 1.68152073 5.56134348 3.69039473 8 7 C4 7 4 7 1.75 5 C1.1725 4.34 0.595 3.68 0 3 C-0.61875 3.87011719 -0.61875 3.87011719 -1.25 4.7578125 C-4.83179926 9.60283561 -8.24762834 13.3073875 -13.30078125 16.61328125 C-15.25869691 18.21112046 -16.02987112 19.69040382 -17 22 C-17.66 22 -18.32 22 -19 22 C-19.2371875 22.57492188 -19.474375 23.14984375 -19.71875 23.7421875 C-21.27260123 26.48037655 -23.10998064 28.08417178 -25.5 30.125 C-28.82482449 32.98168952 -28.82482449 32.98168952 -32 36 C-32 32 -32 32 -30.78515625 30.30413818 C-30.21667969 29.74454407 -29.64820313 29.18494995 -29.0625 28.60839844 C-28.42183594 27.9680365 -27.78117188 27.32767456 -27.12109375 26.66790771 C-26.42113281 25.98859192 -25.72117188 25.30927612 -25 24.609375 C-24.28972656 23.90476135 -23.57945312 23.20014771 -22.84765625 22.47418213 C-20.57430627 20.22324353 -18.28745164 17.98659806 -16 15.75 C-14.4574243 14.22748296 -12.9157458 12.70405632 -11.375 11.1796875 C-7.59368535 7.44250342 -3.80118556 3.71696516 0 0 Z " fill="#E0F9ED" transform="translate(175,156)"/>
<path d="M0 0 C3.24267145 1.45519178 5.48599313 3.5151129 8 6 C8.89460938 6.86625 9.78921875 7.7325 10.7109375 8.625 C13.17380562 11.05337417 15.59910158 13.51054385 18 16 C17.01 16.33 16.02 16.66 15 17 C14.67 17.66 14.34 18.32 14 19 C14 18.01 14 17.02 14 16 C13.195625 15.731875 12.39125 15.46375 11.5625 15.1875 C10.716875 14.795625 9.87125 14.40375 9 14 C8.67 13.01 8.34 12.02 8 11 C7.34 10.67 6.68 10.34 6 10 C5.67 9.01 5.34 8.02 5 7 C1.84031293 3.84031293 0.23921879 3.01177405 -4.2890625 2.96875 C-7.543959 3.224036 -10.7654291 3.55848587 -14 4 C-14.33 4.99 -14.66 5.98 -15 7 C-16.65 7 -18.3 7 -20 7 C-14.52051843 -0.43643928 -9.00440277 -1.27969548 0 0 Z " fill="#479C6E" transform="translate(182,137)"/>
<path d="M0 0 C2.31 1.98 4.62 3.96 7 6 C2.19190414 11.82628086 -3.01804955 17.17223502 -8.36987305 22.50024414 C-9.83046259 23.95539571 -11.28553203 25.41591857 -12.74023438 26.87695312 C-13.65740234 27.79283203 -14.57457031 28.70871094 -15.51953125 29.65234375 C-16.35589111 30.48757568 -17.19225098 31.32280762 -18.05395508 32.18334961 C-20 34 -20 34 -21 34 C-21.36625971 29.48279689 -21.36625971 29.48279689 -19.625 27.1875 C-18 26 -18 26 -16 26 C-15.01 24.7625 -15.01 24.7625 -14 23.5 C-13.01 22.2625 -13.01 22.2625 -12 21 C-11.34 21 -10.68 21 -10 21 C-10 20.34 -10 19.68 -10 19 C-8.625 17.375 -8.625 17.375 -7 16 C-6.34 16 -5.68 16 -5 16 C-4.87625 15.38125 -4.7525 14.7625 -4.625 14.125 C-4 12 -4 12 -2 10 C-1.01 10 -0.02 10 1 10 C1 9.34 1 8.68 1 8 C1.66 8 2.32 8 3 8 C3 6.68 3 5.36 3 4 C2.34 4 1.68 4 1 4 C0.67 2.68 0.34 1.36 0 0 Z " fill="#CE565C" transform="translate(217,266)"/>
<path d="M0 0 C0.66 0.66 1.32 1.32 2 2 C-0.74117475 5.72799766 -3.74275153 8.58408835 -7.265625 11.52734375 C-10.46174071 14.24116272 -13.31905181 17.11476735 -15.875 20.4375 C-18.13157284 23.15866136 -20.56217204 25.26868968 -23.265625 27.52734375 C-26.48529087 30.26115914 -29.35104985 33.16264497 -31.9375 36.5 C-34.38052644 39.46124417 -37.00956336 41.59464879 -40 44 C-40.66 44.66 -41.32 45.32 -42 46 C-42 43 -42 43 -39.8125 40.6875 C-38.884375 39.800625 -37.95625 38.91375 -37 38 C-36.195625 37.01 -35.39125 36.02 -34.5625 35 C-31.93248768 31.92096119 -29.1374966 29.54921599 -26 27 C-23.31279024 24.44387364 -20.90251536 21.8800189 -18.5625 19 C-15.93248768 15.92096119 -13.1374966 13.54921599 -10 11 C-6.36406486 7.54142755 -3.16195698 3.88469 0 0 Z " fill="#E4E4E5" transform="translate(225,200)"/>
<path d="M0 0 C0.90492188 0.02320313 1.80984375 0.04640625 2.7421875 0.0703125 C3.65226562 0.08835938 4.56234375 0.10640625 5.5 0.125 C6.19867188 0.14820313 6.89734375 0.17140625 7.6171875 0.1953125 C7.7409375 1.1646875 7.8646875 2.1340625 7.9921875 3.1328125 C8.1984375 4.1434375 8.4046875 5.1540625 8.6171875 6.1953125 C9.2771875 6.5253125 9.9371875 6.8553125 10.6171875 7.1953125 C7.6171875 7.1953125 7.6171875 7.1953125 4.9296875 4.6953125 C4.1665625 3.8703125 3.4034375 3.0453125 2.6171875 2.1953125 C-0.53486231 3.58878626 -2.64453023 5.22016329 -5.0546875 7.671875 C-5.71855469 8.3421875 -6.38242188 9.0125 -7.06640625 9.703125 C-7.74832031 10.40179688 -8.43023437 11.10046875 -9.1328125 11.8203125 C-9.83019531 12.52671875 -10.52757812 13.233125 -11.24609375 13.9609375 C-12.96293738 15.70129953 -14.67493082 17.44616231 -16.3828125 19.1953125 C-16.7128125 18.2053125 -17.0428125 17.2153125 -17.3828125 16.1953125 C-16.0703125 14.0078125 -16.0703125 14.0078125 -14.3828125 12.1953125 C-13.7228125 12.1953125 -13.0628125 12.1953125 -12.3828125 12.1953125 C-11.7228125 10.8753125 -11.0628125 9.5553125 -10.3828125 8.1953125 C-9.3928125 8.1953125 -8.4028125 8.1953125 -7.3828125 8.1953125 C-7.3828125 7.5353125 -7.3828125 6.8753125 -7.3828125 6.1953125 C-6.7228125 6.1953125 -6.0628125 6.1953125 -5.3828125 6.1953125 C-5.2590625 5.5765625 -5.1353125 4.9578125 -5.0078125 4.3203125 C-4.10633607 1.25529264 -3.21826515 0.26379223 0 0 Z " fill="#449A6C" transform="translate(174.3828125,154.8046875)"/>
<path d="M0 0 C0.66 0.66 1.32 1.32 2 2 C1.8125 4.0625 1.8125 4.0625 1 6 C0.01 6.33 -0.98 6.66 -2 7 C-2.33 7.99 -2.66 8.98 -3 10 C-3.8971875 10.12375 -3.8971875 10.12375 -4.8125 10.25 C-8.45879741 11.50015911 -9.30072588 14.66214012 -11 18 C-11.66 17.67 -12.32 17.34 -13 17 C-13.928125 18.2065625 -13.928125 18.2065625 -14.875 19.4375 C-17 22 -17 22 -19 23 C-19.66 22.34 -20.32 21.68 -21 21 C-14.07 14.07 -7.14 7.14 0 0 Z " fill="#46A371" transform="translate(151,154)"/>
<path d="M0 0 C0.99 0.33 1.98 0.66 3 1 C1.35 2.98 -0.3 4.96 -2 7 C-0.54254576 10.36335594 1.31117854 12.54534005 3.9140625 15.109375 C4.67460938 15.86347656 5.43515625 16.61757812 6.21875 17.39453125 C7.0128125 18.17183594 7.806875 18.94914062 8.625 19.75 C9.42679688 20.54277344 10.22859375 21.33554688 11.0546875 22.15234375 C13.03202846 24.10614493 15.01388909 26.05512103 17 28 C16.01 28.66 15.02 29.32 14 30 C11 26.25 11 26.25 11 24 C10.01 23.67 9.02 23.34 8 23 C8 22.34 8 21.68 8 21 C7.360625 20.731875 6.72125 20.46375 6.0625 20.1875 C4 19 4 19 3 16 C2.360625 15.690625 1.72125 15.38125 1.0625 15.0625 C-1.4790234 13.75323037 -1.85049752 12.54532692 -3 10 C-3.66 9.67 -4.32 9.34 -5 9 C-3.90931332 5.22454612 -3.0916909 2.52956528 0 0 Z " fill="#C8565E" transform="translate(110,217)"/>
<path d="M0 0 C0.66 0.33 1.32 0.66 2 1 C0.46751951 4.58402695 -1.6674601 7.02850134 -4.375 9.8125 C-5.14585937 10.62332031 -5.91671875 11.43414062 -6.7109375 12.26953125 C-9 14 -9 14 -11.1484375 13.921875 C-13.87907829 12.56231545 -15.24698846 10.44169464 -17 8 C-16.40832031 7.96261719 -15.81664062 7.92523438 -15.20703125 7.88671875 C-10.43202901 7.48945103 -6.8954496 7.04332 -3 4 C-2.67 3.34 -2.34 2.68 -2 2 C-1.34 2 -0.68 2 0 2 C0 1.34 0 0.68 0 0 Z " fill="#429D6C" transform="translate(212,166)"/>
<path d="M0 0 C-0.33 0.99 -0.66 1.98 -1 3 C-7.625 4.25 -7.625 4.25 -11 2 C-13.31923274 1.63423946 -13.31923274 1.63423946 -15.88671875 1.5859375 C-16.82451172 1.54726563 -17.76230469 1.50859375 -18.72851562 1.46875 C-19.70498047 1.4378125 -20.68144531 1.406875 -21.6875 1.375 C-22.67556641 1.33632813 -23.66363281 1.29765625 -24.68164062 1.2578125 C-27.12090707 1.16354133 -29.56016595 1.07793782 -32 1 C-32 0.67 -32 0.34 -32 0 C-31.2886792 -0.02505615 -30.5773584 -0.0501123 -29.84448242 -0.07592773 C-26.62530483 -0.19188439 -23.40642015 -0.31461245 -20.1875 -0.4375 C-19.06794922 -0.47681641 -17.94839844 -0.51613281 -16.79492188 -0.55664062 C-15.72177734 -0.59853516 -14.64863281 -0.64042969 -13.54296875 -0.68359375 C-12.0583313 -0.73858032 -12.0583313 -0.73858032 -10.54370117 -0.79467773 C-3.04667211 -1.39982232 -3.04667211 -1.39982232 0 0 Z " fill="#434244" transform="translate(344,266)"/>
<path d="M0 0 C0.66 0.33 1.32 0.66 2 1 C1.690625 1.5775 1.38125 2.155 1.0625 2.75 C-0.24459178 5.51795905 -1 7.93361147 -1 11 C-0.34 11.33 0.32 11.66 1 12 C0.34 13.32 -0.32 14.64 -1 16 C-2.03531726 15.09972412 -3.05294165 14.17906965 -4.0625 13.25 C-4.63097656 12.73953125 -5.19945312 12.2290625 -5.78515625 11.703125 C-7 10 -7 10 -6.875 8 C-5.87533617 5.71505411 -4.75272462 4.44935922 -2.9375 2.75 C-2.38964844 2.22921875 -1.84179688 1.7084375 -1.27734375 1.171875 C-0.64505859 0.59179688 -0.64505859 0.59179688 0 0 Z " fill="#449D6D" transform="translate(230,240)"/>
<path d="M0 0 C6.95348837 5.29069767 6.95348837 5.29069767 8 10 C8.75255811 16.90236887 8.09267829 21.34247414 4 27 C3.34 27.33 2.68 27.66 2 28 C2.33 26.35 2.66 24.7 3 23 C3.99 22.67 4.98 22.34 6 22 C6.23302133 16.2909775 6.17878722 11.33802868 4 6 C2.01432266 4.50256112 2.01432266 4.50256112 0 4 C0 2.68 0 1.36 0 0 Z " fill="#44966A" transform="translate(256,210)"/>
<path d="M0 0 C5.29012124 4.40843437 10.18808428 9.07559794 15 14 C14.67 14.66 14.34 15.32 14 16 C13.34 16 12.68 16 12 16 C9 12.53846154 9 12.53846154 9 10 C6.03 9.505 6.03 9.505 3 9 C2.67 7.35 2.34 5.7 2 4 C1.34 4 0.68 4 0 4 C0 2.68 0 1.36 0 0 Z " fill="#D14E59" transform="translate(144,263)"/>
<path d="M0 0 C4.45702846 1.44197979 7.5869477 3.89072722 11 7 C11.94875 7.845625 12.8975 8.69125 13.875 9.5625 C16 12 16 12 16 16 C10.35573231 11.31645873 4.9941954 6.3792354 0 1 C0 0.67 0 0.34 0 0 Z " fill="#CB595C" transform="translate(134,278)"/>
<path d="M0 0 C0.33 1.32 0.66 2.64 1 4 C-1.53816609 7.03169839 -3.22508911 8.74169637 -7 10 C-7 10.66 -7 11.32 -7 12 C-7.66 12 -8.32 12 -9 12 C-9.33 12.66 -9.66 13.32 -10 14 C-10.99 13.67 -11.98 13.34 -13 13 C-8.71 8.71 -4.42 4.42 0 0 Z " fill="#CD565D" transform="translate(205,265)"/>
<path d="M0 0 C0 1.65 0 3.3 0 5 C-0.66 5 -1.32 5 -2 5 C-2.2475 5.639375 -2.495 6.27875 -2.75 6.9375 C-4.32987939 9.544301 -5.16780311 9.29195078 -8 10 C-9.28436734 11.9837767 -9.28436734 11.9837767 -10 14 C-10.33 13.01 -10.66 12.02 -11 11 C-9.671875 9.0625 -9.671875 9.0625 -7.75 7 C-7.12609375 6.319375 -6.5021875 5.63875 -5.859375 4.9375 C-5.24578125 4.298125 -4.6321875 3.65875 -4 3 C-3.44828125 2.4225 -2.8965625 1.845 -2.328125 1.25 C-1 0 -1 0 0 0 Z " fill="#CE5255" transform="translate(100,206)"/>
<path d="M0 0 C4.52615993 3.67832017 8.39424999 7.41086363 12 12 C9.23723823 11.47731534 6.6739124 10.89130413 4 10 C4 8.35 4 6.7 4 5 C2.68 5.33 1.36 5.66 0 6 C-1.125 2.25 -1.125 2.25 0 0 Z " fill="#41A16E" transform="translate(200,154)"/>
<path d="M0 0 C4.52615993 3.67832017 8.39424999 7.41086363 12 12 C9.92446352 12.5534764 8.15634036 13 6 13 C5.81824219 12.36191406 5.63648438 11.72382813 5.44921875 11.06640625 C5.19785156 10.24011719 4.94648438 9.41382813 4.6875 8.5625 C4.44386719 7.73878906 4.20023438 6.91507812 3.94921875 6.06640625 C3.63597656 5.38449219 3.32273438 4.70257813 3 4 C2.01 3.67 1.02 3.34 0 3 C0 2.01 0 1.02 0 0 Z " fill="#D14C56" transform="translate(163,282)"/>
<path d="M0 0 C3.07684111 2.02192416 4.92027706 4.54049291 7.1875 7.4375 C6.1975 7.9325 6.1975 7.9325 5.1875 8.4375 C5.1875 7.7775 5.1875 7.1175 5.1875 6.4375 C3.8675 5.7775 2.5475 5.1175 1.1875 4.4375 C1.1875 3.7775 1.1875 3.1175 1.1875 2.4375 C-0.1325 2.4375 -1.4525 2.4375 -2.8125 2.4375 C-2.8125 3.4275 -2.8125 4.4175 -2.8125 5.4375 C-4.7925 5.7675 -6.7725 6.0975 -8.8125 6.4375 C-2.88405425 -0.89505132 -2.88405425 -0.89505132 0 0 Z " fill="#C95D63" transform="translate(118.8125,189.5625)"/>
<path d="M0 0 C0.33 0.66 0.66 1.32 1 2 C1.66 2.309375 2.32 2.61875 3 2.9375 C5 4 5 4 6 7 C6.99 7 7.98 7 9 7 C9.268125 7.598125 9.53625 8.19625 9.8125 8.8125 C10.98493467 10.97224808 12.19369282 12.35790256 14 14 C9.70244778 14 7.82979591 11.43240704 4.875 8.625 C4.32457031 8.11710937 3.77414063 7.60921875 3.20703125 7.0859375 C-0.85183252 3.29633497 -0.85183252 3.29633497 -2 1 C-1.34 0.67 -0.68 0.34 0 0 Z " fill="#CF6166" transform="translate(156,297)"/>
<path d="M0 0 C0.66 0.99 1.32 1.98 2 3 C1.34 3.66 0.68 4.32 0 5 C-0.6425235 7.06874034 -0.6425235 7.06874034 -1 9 C-3.875 9.625 -3.875 9.625 -7 10 C-7.66 9.34 -8.32 8.68 -9 8 C-8.43410156 7.50628906 -7.86820313 7.01257813 -7.28515625 6.50390625 C-6.55167969 5.86324219 -5.81820312 5.22257812 -5.0625 4.5625 C-4.33160156 3.92441406 -3.60070312 3.28632813 -2.84765625 2.62890625 C-1.87860647 1.77458541 -0.91348825 0.91348825 0 0 Z " fill="#D0535B" transform="translate(184,286)"/>
<path d="M0 0 C0.66 0 1.32 0 2 0 C2.33 1.32 2.66 2.64 3 4 C1.73427767 5.15147661 0.46222094 6.29599314 -0.8125 7.4375 C-1.87404297 8.39462891 -1.87404297 8.39462891 -2.95703125 9.37109375 C-5 11 -5 11 -8 12 C-8 10.35 -8 8.7 -8 7 C-7.67 7.66 -7.34 8.32 -7 9 C-6.34 9 -5.68 9 -5 9 C-4.67 7.68 -4.34 6.36 -4 5 C-3.01 5 -2.02 5 -1 5 C-0.67 3.35 -0.34 1.7 0 0 Z " fill="#2F2F2F" transform="translate(361,271)"/>
<path d="M0 0 C0.33 0.66 0.66 1.32 1 2 C0.00390625 3.9453125 0.00390625 3.9453125 -1.4375 6.125 C-1.91058594 6.84945312 -2.38367188 7.57390625 -2.87109375 8.3203125 C-3.24363281 8.87460938 -3.61617187 9.42890625 -4 10 C-6.64 8.68 -9.28 7.36 -12 6 C-11.34 5.01 -10.68 4.02 -10 3 C-9.34 3.66 -8.68 4.32 -8 5 C-4.21096292 4.74739753 -2.45813407 2.72150557 0 0 Z " fill="#E3FAED" transform="translate(208,174)"/>
<path d="M0 0 C4.11336093 1.45177445 7.50833145 3.38124858 11 6 C11.33 6.99 11.66 7.98 12 9 C11.01 10.485 11.01 10.485 10 12 C7.44179127 10.72089563 7.247295 9.53100737 6 7 C4.99564028 5.71983165 3.95309739 4.46871878 2.875 3.25 C2.33617187 2.63640625 1.79734375 2.0228125 1.2421875 1.390625 C0.83226562 0.93171875 0.42234375 0.4728125 0 0 Z " fill="#4C9D72" transform="translate(236,215)"/>
<path d="M0 0 C0.99 0.66 1.98 1.32 3 2 C-0.63 5.63 -4.26 9.26 -8 13 C-8.33 12.01 -8.66 11.02 -9 10 C-7.63671875 7.95703125 -7.63671875 7.95703125 -5.6875 5.8125 C-5.05199219 5.09707031 -4.41648438 4.38164062 -3.76171875 3.64453125 C-2 2 -2 2 0 2 C0 1.34 0 0.68 0 0 Z " fill="#429B69" transform="translate(154,173)"/>
<path d="M0 0 C0.75410156 0.00451172 1.50820312 0.00902344 2.28515625 0.01367188 C4.14847127 0.02546501 6.01174555 0.04340058 7.875 0.0625 C8.205 0.7225 8.535 1.3825 8.875 2.0625 C7.93398437 2.01609375 6.99296875 1.9696875 6.0234375 1.921875 C-3.41637475 1.45451697 -3.41637475 1.45451697 -11.125 6.0625 C-12.300625 6.92875 -12.300625 6.92875 -13.5 7.8125 C-14.304375 8.43125 -14.304375 8.43125 -15.125 9.0625 C-15.125 8.0725 -15.125 7.0825 -15.125 6.0625 C-14.465 6.0625 -13.805 6.0625 -13.125 6.0625 C-13.125 5.4025 -13.125 4.7425 -13.125 4.0625 C-12.465 4.0625 -11.805 4.0625 -11.125 4.0625 C-10.795 3.0725 -10.465 2.0825 -10.125 1.0625 C-6.93675432 -0.53162284 -3.49603338 -0.03924735 0 0 Z " fill="#D5F5E5" transform="translate(175.125,135.9375)"/>
<path d="M0 0 C0.99 0.33 1.98 0.66 3 1 C2.55269531 1.37511719 2.10539062 1.75023437 1.64453125 2.13671875 C-2.07162561 5.28237818 -5.59909623 8.50959876 -9 12 C-10.66666667 13.66666667 -12.33333333 15.33333333 -14 17 C-14 14 -14 14 -11.875 11.75 C-10.92625 10.8425 -9.9775 9.935 -9 9 C-7.4491044 7.20483834 -5.93432317 5.38481013 -4.4296875 3.55078125 C-3 2 -3 2 0 0 Z " fill="#E5E5E6" transform="translate(244,182)"/>
<path d="M0 0 C1.65 1.65 3.3 3.3 5 5 C4.01 5.66 3.02 6.32 2 7 C1.01 6.67 0.02 6.34 -1 6 C-2.67739862 6.98189187 -4.34467377 7.98133771 -6 9 C-6.66 8.67 -7.32 8.34 -8 8 C-5.36 5.36 -2.72 2.72 0 0 Z " fill="#343235" transform="translate(238,162)"/>
<path d="M0 0 C3.38147659 1.44920425 5.45737085 3.37261655 8 6 C8.66 6.33 9.32 6.66 10 7 C10 7.66 10 8.32 10 9 C10.99 9.33 11.98 9.66 13 10 C13 10.66 13 11.32 13 12 C13.66 12.66 14.32 13.32 15 14 C14.01 14 13.02 14 12 14 C10.77375254 12.5749016 9.5548844 11.14159115 8.40234375 9.65625 C6.97231166 7.96729846 5.48649063 6.67837273 3.75 5.3125 C1 3 1 3 0 0 Z " fill="#CB5D62" transform="translate(91,234)"/>
<path d="M0 0 C3.36720387 1.39332574 4.9859524 2.9789286 7 6 C-0.42857143 6.28571429 -0.42857143 6.28571429 -4 4 C-2.68 2.68 -1.36 1.36 0 0 Z " fill="#C9565C" transform="translate(210,260)"/>
<path d="M0 0 C1.65 0.33 3.3 0.66 5 1 C5 1.99 5 2.98 5 4 C5.66 4.66 6.32 5.32 7 6 C4.69 6.66 2.38 7.32 0 8 C-0.79953138 4.71303767 -1.09658936 3.28976808 0 0 Z " fill="#323033" transform="translate(531,209)"/>
<path d="M0 0 C0.33 1.32 0.66 2.64 1 4 C0.34 4 -0.32 4 -1 4 C-1 5.32 -1 6.64 -1 8 C-3.64 8.66 -6.28 9.32 -9 10 C-8.06409496 8.8944811 -7.12620142 7.79064547 -6.1875 6.6875 C-5.66542969 6.07261719 -5.14335938 5.45773438 -4.60546875 4.82421875 C-3.12827531 3.14575321 -1.59960869 1.56117966 0 0 Z " fill="#D45E64" transform="translate(109,196)"/>
<path d="M0 0 C3.67420866 0.30618405 4.78135513 0.75771784 7.3125 3.5625 C8.1478125 4.7690625 8.1478125 4.7690625 9 6 C8.01 6 7.02 6 6 6 C5.67 6.66 5.34 7.32 5 8 C5 7.01 5 6.02 5 5 C2.525 4.01 2.525 4.01 0 3 C0 2.01 0 1.02 0 0 Z " fill="#36A26A" transform="translate(191,148)"/>
<path d="M0 0 C0 3 0 3 -2.0625 5.3125 C-5.31276423 8.286146 -8.62482514 11.16952195 -12 14 C-12.66 13.67 -13.32 13.34 -14 13 C-13.32453125 12.39671875 -12.6490625 11.7934375 -11.953125 11.171875 C-11.06109375 10.37265625 -10.1690625 9.5734375 -9.25 8.75 C-8.36828125 7.96109375 -7.4865625 7.1721875 -6.578125 6.359375 C-4.32133835 4.29407328 -2.14260074 2.18264936 0 0 Z " fill="#FEE6E3" transform="translate(198,298)"/>
<path d="M0 0 C2.31 1.98 4.62 3.96 7 6 C5.35 7.98 3.7 9.96 2 12 C1.67 10.68 1.34 9.36 1 8 C1.66 8 2.32 8 3 8 C3 6.68 3 5.36 3 4 C2.34 4 1.68 4 1 4 C0.67 2.68 0.34 1.36 0 0 Z " fill="#C65B61" transform="translate(217,266)"/>
<path d="M0 0 C0.33 1.32 0.66 2.64 1 4 C-1.1875 6.8125 -1.1875 6.8125 -4 9 C-5.32 8.67 -6.64 8.34 -8 8 C-5.36 5.36 -2.72 2.72 0 0 Z " fill="#439F6D" transform="translate(239,231)"/>
<path d="M0 0 C2.03833424 1.2739589 4.03852126 2.61061923 6 4 C6 4.66 6 5.32 6 6 C5.01 6.33 4.02 6.66 3 7 C1.35 5.35 -0.3 3.7 -2 2 C-1.34 2 -0.68 2 0 2 C0 1.34 0 0.68 0 0 Z " fill="#363636" transform="translate(406,273)"/>
<path d="M0 0 C0.99 0.33 1.98 0.66 3 1 C0.03 3.97 -2.94 6.94 -6 10 C-6.33 9.01 -6.66 8.02 -7 7 C-6.34 7 -5.68 7 -5 7 C-5 6.01 -5 5.02 -5 4 C-4.34 4 -3.68 4 -3 4 C-3 3.34 -3 2.68 -3 2 C-2.01 2 -1.02 2 0 2 C0 1.34 0 0.68 0 0 Z " fill="#4FA074" transform="translate(247,246)"/>
<path d="M0 0 C1.32 0 2.64 0 4 0 C4 0.66 4 1.32 4 2 C4.99 2.33 5.98 2.66 7 3 C7.33 4.65 7.66 6.3 8 8 C6.85073734 7.04578192 5.70569459 6.08647955 4.5625 5.125 C3.92441406 4.59132812 3.28632812 4.05765625 2.62890625 3.5078125 C1 2 1 2 0 0 Z " fill="#FEECE9" transform="translate(121,191)"/>
<path d="M0 0 C3.99500618 1.3697164 6.80009492 3.25722422 10 6 C9.67 6.99 9.34 7.98 9 9 C7.87105124 8.06725891 6.74699124 7.12859878 5.625 6.1875 C4.99851563 5.66542969 4.37203125 5.14335937 3.7265625 4.60546875 C2 3 2 3 0 0 Z " fill="#4B9F74" transform="translate(186,165)"/>
<path d="M0 0 C-0.39803561 2.88575819 -0.79009069 3.82189513 -3.0625 5.75 C-3.701875 6.1625 -4.34125 6.575 -5 7 C-5.6875 5.1875 -5.6875 5.1875 -6 3 C-4.04862098 0.26806937 -3.44686768 0 0 0 Z " fill="#D44F58" transform="translate(218,276)"/>
<path d="M0 0 C0.33 0.66 0.66 1.32 1 2 C1.66 2.268125 2.32 2.53625 3 2.8125 C5 4 5 4 5.75 6.625 C5.8325 7.40875 5.915 8.1925 6 9 C4.85073734 8.04578192 3.70569459 7.08647955 2.5625 6.125 C1.92441406 5.59132813 1.28632812 5.05765625 0.62890625 4.5078125 C-1 3 -1 3 -2 1 C-1.34 0.67 -0.68 0.34 0 0 Z " fill="#D05F66" transform="translate(116,257)"/>
<path d="M0 0 C4.875 3.625 4.875 3.625 6 7 C3 7 3 7 1.61328125 5.6875 C0.40885417 4.125 -0.79557292 2.5625 -2 1 C-1.34 0.67 -0.68 0.34 0 0 Z " fill="#CD5E64" transform="translate(124,265)"/>
<path d="M0 0 C0.66 0 1.32 0 2 0 C2.33 0.99 2.66 1.98 3 3 C0.03 5.475 0.03 5.475 -3 8 C-3 6.35 -3 4.7 -3 3 C-2.01 2.67 -1.02 2.34 0 2 C0 1.34 0 0.68 0 0 Z " fill="#D34E56" transform="translate(117,209)"/>
<path d="M0 0 C-0.33 1.65 -0.66 3.3 -1 5 C-2.65 4.67 -4.3 4.34 -6 4 C-6 3.01 -6 2.02 -6 1 C-4 0 -4 0 0 0 Z " fill="#363437" transform="translate(550,193)"/>
<path d="M0 0 C1.32 0.33 2.64 0.66 4 1 C2.35 2.65 0.7 4.3 -1 6 C-4.875 4.25 -4.875 4.25 -6 2 C-3.03 2.495 -3.03 2.495 0 3 C0 2.01 0 1.02 0 0 Z " fill="#FEDFDF" transform="translate(178,288)"/>
<path d="M0 0 C0.99 0.66 1.98 1.32 3 2 C0.36 3.98 -2.28 5.96 -5 8 C-5 6.35 -5 4.7 -5 3 C-2.5 1.1875 -2.5 1.1875 0 0 Z " fill="#FEEAE9" transform="translate(209,258)"/>
<path d="M0 0 C1.17539996 0.92652701 2.34010577 1.86663387 3.5 2.8125 C4.1496875 3.33457031 4.799375 3.85664063 5.46875 4.39453125 C7 6 7 6 7 9 C6.67 8.34 6.34 7.68 6 7 C3.47266765 6.34444881 3.47266765 6.34444881 1 6 C0.67 4.02 0.34 2.04 0 0 Z " fill="#CF535E" transform="translate(131,250)"/>
<path d="M0 0 C1.65 1.32 3.3 2.64 5 4 C3.63016497 7.16115776 3.0109362 7.9927092 0 10 C0.57584432 7.61435923 1.22227595 5.33317216 2 3 C1.34 3 0.68 3 0 3 C0 2.01 0 1.02 0 0 Z " fill="#D9F9E8" transform="translate(240,220)"/>
<path d="M0 0 C1.98 0 3.96 0 6 0 C5.67 1.65 5.34 3.3 5 5 C3.0625 4.1875 3.0625 4.1875 1 3 C0.67 2.01 0.34 1.02 0 0 Z " fill="#403E41" transform="translate(145,218)"/>
<path d="M0 0 C2.9719385 1.12451727 5.33440687 2.22293791 8 4 C7.67 5.32 7.34 6.64 7 8 C5.83035398 6.8572081 4.66435444 5.71068285 3.5 4.5625 C2.8503125 3.92441406 2.200625 3.28632813 1.53125 2.62890625 C0 1 0 1 0 0 Z " fill="#CE6268" transform="translate(134,278)"/>
<path d="M0 0 C0.66 0.66 1.32 1.32 2 2 C1.54625 2.433125 1.0925 2.86625 0.625 3.3125 C-1.20024334 5.10798342 -1.20024334 5.10798342 -3 8 C-4.32 7.67 -5.64 7.34 -7 7 C-4.69 4.69 -2.38 2.38 0 0 Z " fill="#312F32" transform="translate(154,210)"/>
<path d="M0 0 C0.33 0 0.66 0 1 0 C1 1.65 1 3.3 1 5 C0.34 4.67 -0.32 4.34 -1 4 C-1.33 4.99 -1.66 5.98 -2 7 C-3.65 7.33 -5.3 7.66 -7 8 C-6.02133662 6.85373678 -5.04205413 5.70800212 -4.0625 4.5625 C-3.51722656 3.92441406 -2.97195312 3.28632813 -2.41015625 2.62890625 C-1.63204305 1.73008851 -0.84063472 0.84063472 0 0 Z " fill="#D06667" transform="translate(99,206)"/>
<path d="M0 0 C3.48331435 3.01887244 4.79157144 5.56909529 6 10 C3.525 9.01 3.525 9.01 1 8 C0.67 5.36 0.34 2.72 0 0 Z " fill="#3C3A3D" transform="translate(585,200)"/>
<path d="M0 0 C3.69459731 0.19970796 4.78742451 0.76444338 7.3125 3.5625 C8.1478125 4.7690625 8.1478125 4.7690625 9 6 C8.01 6.33 7.02 6.66 6 7 C5.1028125 5.7934375 5.1028125 5.7934375 4.1875 4.5625 C2.19052724 1.77672016 2.19052724 1.77672016 -1 1 C-0.67 0.67 -0.34 0.34 0 0 Z " fill="#51A378" transform="translate(243,200)"/>
<path d="M0 0 C0.66 0.66 1.32 1.32 2 2 C-1.465 4.97 -1.465 4.97 -5 8 C-5 6.68 -5 5.36 -5 4 C-4.34 4 -3.68 4 -3 4 C-3 3.34 -3 2.68 -3 2 C-2.01 1.34 -1.02 0.68 0 0 Z " fill="#FEE9E5" transform="translate(188,279)"/>
<path d="M0 0 C0 3 0 3 -1 5 C-1.66 5 -2.32 5 -3 5 C-3.66 6.32 -4.32 7.64 -5 9 C-5.99 8.67 -6.98 8.34 -8 8 C-5.36 5.36 -2.72 2.72 0 0 Z " fill="#E2FCED" transform="translate(249,247)"/>
<path d="M0 0 C0.99 0.33 1.98 0.66 3 1 C-0.465 3.97 -0.465 3.97 -4 7 C-4.33 6.34 -4.66 5.68 -5 5 C-4.67 4.34 -4.34 3.68 -4 3 C-3.34 3 -2.68 3 -2 3 C-2 2.34 -2 1.68 -2 1 C-1.34 0.67 -0.68 0.34 0 0 Z " fill="#4AA072" transform="translate(254,239)"/>
<path d="M0 0 C1.17539996 0.92652701 2.34010577 1.86663387 3.5 2.8125 C4.1496875 3.33457031 4.799375 3.85664063 5.46875 4.39453125 C7 6 7 6 7 9 C6.67 8.34 6.34 7.68 6 7 C5.01 6.67 4.02 6.34 3 6 C3 5.34 3 4.68 3 4 C2.01 3.67 1.02 3.34 0 3 C0 2.01 0 1.02 0 0 Z " fill="#C85760" transform="translate(163,282)"/>
<path d="M0 0 C0.99 0 1.98 0 3 0 C3 0.66 3 1.32 3 2 C4.32 2.33 5.64 2.66 7 3 C6.67 3.99 6.34 4.98 6 6 C3.97945196 4.35830472 1.97956942 2.69088222 0 1 C0 0.67 0 0.34 0 0 Z M7 0 C7.33 0.66 7.66 1.32 8 2 C7.34 1.67 6.68 1.34 6 1 C6.33 0.67 6.66 0.34 7 0 Z " fill="#FEE5E6" transform="translate(122,240)"/>
<path d="M0 0 C0.33 0 0.66 0 1 0 C1.66 4.29 2.32 8.58 3 13 C1.68 12.67 0.36 12.34 -1 12 C-0.67 8.04 -0.34 4.08 0 0 Z " fill="#FAD7D4" transform="translate(87,221)"/>
<path d="M0 0 C-0.3125 1.875 -0.3125 1.875 -1 4 C-1.99 4.66 -2.98 5.32 -4 6 C-4.66 4.68 -5.32 3.36 -6 2 C-2.25 0 -2.25 0 0 0 Z " fill="#393438" transform="translate(232,192)"/>
<path d="M0 0 C4.875 4.625 4.875 4.625 6 8 C3.05043472 6.63055898 0.47531189 5.12169591 -2 3 C-2 2.34 -2 1.68 -2 1 C-1.34 0.67 -0.68 0.34 0 0 Z " fill="#C7575D" transform="translate(164,304)"/>
<path d="M0 0 C2.31 1.98 4.62 3.96 7 6 C6.67 6.66 6.34 7.32 6 8 C5.34 8 4.68 8 4 8 C0 2.58823529 0 2.58823529 0 0 Z " fill="#CB5760" transform="translate(152,271)"/>
<path d="M0 0 C5.875 4.625 5.875 4.625 7 8 C6.34 8 5.68 8 5 8 C4.67 7.34 4.34 6.68 4 6 C1.98330173 4.86649466 1.98330173 4.86649466 0 4 C0 2.68 0 1.36 0 0 Z " fill="#56A177" transform="translate(256,210)"/>
<path d="M0 0 C1.32 0.99 2.64 1.98 4 3 C2.63016497 6.16115776 2.0109362 6.9927092 -1 9 C-1 8.01 -1 7.02 -1 6 C-0.34 6 0.32 6 1 6 C0.67 4.02 0.34 2.04 0 0 Z " fill="#C06262" transform="translate(126,197)"/>
<path d="M0 0 C0.33 1.32 0.66 2.64 1 4 C-0.65 5.32 -2.3 6.64 -4 8 C-4 4 -4 4 -2 1.75 C-1.01 0.88375 -1.01 0.88375 0 0 Z " fill="#DEF8E9" transform="translate(147,184)"/>
<path d="M0 0 C1.485 0.99 1.485 0.99 3 2 C4.32 2 5.64 2 7 2 C7 2.66 7 3.32 7 4 C6.34 4 5.68 4 5 4 C4.67 4.66 4.34 5.32 4 6 C2.35 5.01 0.7 4.02 -1 3 C-0.67 2.01 -0.34 1.02 0 0 Z " fill="#DAF7E5" transform="translate(197,177)"/>
<path d="M0 0 C0 1.65 0 3.3 0 5 C-0.99 5 -1.98 5 -3 5 C-3.33 5.66 -3.66 6.32 -4 7 C-4.66 6.34 -5.32 5.68 -6 5 C-1.125 0 -1.125 0 0 0 Z " fill="#4CA475" transform="translate(162,144)"/>
<path d="M0 0 C2.31 0.66 4.62 1.32 7 2 C7.33 3.65 7.66 5.3 8 7 C6.66382648 6.02471263 5.3311249 5.04466681 4 4.0625 C3.2575 3.51722656 2.515 2.97195312 1.75 2.41015625 C1.1725 1.94480469 0.595 1.47945312 0 1 C0 0.67 0 0.34 0 0 Z " fill="#DAF7E7" transform="translate(184,138)"/>
<path d="M0 0 C0 3 0 3 -1 6 C-1.66 6 -2.32 6 -3 6 C-3.33 6.66 -3.66 7.32 -4 8 C-4.66 7.34 -5.32 6.68 -6 6 C-4.02 4.02 -2.04 2.04 0 0 Z " fill="#CB5C64" transform="translate(191,279)"/>
<path d="M0 0 C0 1.32 0 2.64 0 4 C0.99 4.33 1.98 4.66 3 5 C2.34 5.66 1.68 6.32 1 7 C-0.65 5.02 -2.3 3.04 -4 1 C-2 0 -2 0 0 0 Z " fill="#FEE4E3" transform="translate(158,271)"/>
<path d="M0 0 C1.32 0 2.64 0 4 0 C4 0.66 4 1.32 4 2 C4.99 2.33 5.98 2.66 7 3 C7.33 3.99 7.66 4.98 8 6 C5 6 5 6 3.61328125 4.6875 C2.40885417 3.125 1.20442708 1.5625 0 0 Z " fill="#CE6064" transform="translate(105,249)"/>
<path d="M0 0 C2.475 0.99 2.475 0.99 5 2 C5 2.99 5 3.98 5 5 C3.68 5.33 2.36 5.66 1 6 C0.67 4.02 0.34 2.04 0 0 Z " fill="#F6EDEA" transform="translate(114,184)"/>
<path d="M0 0 C2.475 0.495 2.475 0.495 5 1 C5.33 2.65 5.66 4.3 6 6 C3.97945196 4.35830472 1.97956942 2.69088222 0 1 C0 0.67 0 0.34 0 0 Z " fill="#FDE9E3" transform="translate(218,266)"/>
<path d="M0 0 C0.99 0.66 1.98 1.32 3 2 C2.01 2.99 1.02 3.98 0 5 C-1.32 4.34 -2.64 3.68 -4 3 C-2.68 2.01 -1.36 1.02 0 0 Z " fill="#54A178" transform="translate(236,256)"/>
<path d="M0 0 C0.33 1.32 0.66 2.64 1 4 C0.34 4 -0.32 4 -1 4 C-1.33 4.99 -1.66 5.98 -2 7 C-2.66 6.67 -3.32 6.34 -4 6 C-2.84826645 3.53199953 -1.95216435 1.95216435 0 0 Z " fill="#FFE1DF" transform="translate(111,220)"/>
<path d="M0 0 C0.99 0.33 1.98 0.66 3 1 C3.33 1.99 3.66 2.98 4 4 C3.01 5.485 3.01 5.485 2 7 C1.34 6.67 0.68 6.34 0 6 C0 4.02 0 2.04 0 0 Z " fill="#3AA06B" transform="translate(244,220)"/>
<path d="M0 0 C1.32 0 2.64 0 4 0 C3.34 1.65 2.68 3.3 2 5 C1.01 5 0.02 5 -1 5 C-0.67 3.35 -0.34 1.7 0 0 Z " fill="#DA3F3D" transform="translate(92,217)"/>
</svg>
